<?xml version="1.0" encoding="UTF-8" standalone="no"?>
<!-- Created with Inkscape (http://www.inkscape.org/) -->

<svg
   width="194.83302mm"
   height="112.49605mm"
   viewBox="0 0 194.83302 112.49604"
   version="1.1"
   id="svg1"
   sodipodi:docname="desktop.svg"
   inkscape:version="1.4.2 (ebf0e940d0, 2025-05-08)"
   xmlns:inkscape="http://www.inkscape.org/namespaces/inkscape"
   xmlns:sodipodi="http://sodipodi.sourceforge.net/DTD/sodipodi-0.dtd"
   xmlns:xlink="http://www.w3.org/1999/xlink"
   xmlns="http://www.w3.org/2000/svg"
   xmlns:svg="http://www.w3.org/2000/svg">
  <style
     id="style1">
 @font-face {
    font-family: 'Adwaita Mono';
    src: url(&quot;AdwaitaMono-Regular.woff2&quot;) format(&quot;woff2&quot;);
    font-style: normal;
    font-weight: normal;
}

@font-face {
    font-family: 'Adwaita Mono';
    src: url(&quot;AdwaitaMono-Bold.woff2&quot;) format(&quot;woff2&quot;);
    font-style: normal;
    font-weight: bold;
}

@font-face {
    src: url(&quot;AdwaitaMono-Italic.woff2&quot;) format(&quot;woff2&quot;);
    font-family: 'Adwaita Mono';
    font-style: italic;
    font-weight: normal;
}

 </style>
  <sodipodi:namedview
     id="namedview1"
     pagecolor="#ffffff"
     bordercolor="#000000"
     borderopacity="0.25"
     inkscape:showpageshadow="2"
     inkscape:pageopacity="0.0"
     inkscape:pagecheckerboard="0"
     inkscape:deskcolor="#d1d1d1"
     inkscape:document-units="mm"
     showguides="false"
     inkscape:zoom="2.8284271"
     inkscape:cx="539.3457"
     inkscape:cy="424.44085"
     inkscape:window-width="2556"
     inkscape:window-height="1058"
     inkscape:window-x="0"
     inkscape:window-y="20"
     inkscape:window-maximized="1"
     inkscape:current-layer="layer5">
    <sodipodi:guide
       position="32.664659,286.87514"
       orientation="0,1"
       id="guide3"
       inkscape:locked="false"
       inkscape:label=""
       inkscape:color="rgb(0,134,229)" />
    <sodipodi:guide
       position="10.251556,283.84794"
       orientation="1,0"
       id="guide4"
       inkscape:locked="false" />
    <sodipodi:guide
       position="124.67351,143.20949"
       orientation="0,-1"
       id="guide5"
       inkscape:locked="false" />
    <sodipodi:guide
       position="273.89851,213.32408"
       orientation="1,0"
       id="guide6"
       inkscape:locked="false" />
    <sodipodi:guide
       position="0.25155359,259.859"
       orientation="-1,0"
       id="guide9"
       inkscape:locked="false"
       inkscape:label=""
       inkscape:color="rgb(0,134,229)" />
    <sodipodi:guide
       position="24.330284,296.87514"
       orientation="0,1"
       id="guide10"
       inkscape:locked="false"
       inkscape:label=""
       inkscape:color="rgb(0,134,229)" />
    <sodipodi:guide
       position="63.487501,277.58565"
       orientation="1,0"
       id="guide11"
       inkscape:locked="false" />
    <sodipodi:guide
       position="73.487502,277.58565"
       orientation="-1,0"
       id="guide12"
       inkscape:label=""
       inkscape:locked="false"
       inkscape:color="rgb(0,134,229)" />
    <sodipodi:guide
       position="44.554373,255.72811"
       orientation="0,1"
       id="guide14"
       inkscape:label=""
       inkscape:locked="false"
       inkscape:color="rgb(0,134,229)" />
    <sodipodi:guide
       position="25.087551,247.2422"
       orientation="0,-1"
       id="guide20"
       inkscape:locked="false" />
    <sodipodi:guide
       position="25.087551,257.2422"
       orientation="0,1"
       id="guide21"
       inkscape:label=""
       inkscape:locked="false"
       inkscape:color="rgb(0,134,229)" />
    <sodipodi:guide
       position="39.195206,220.97378"
       orientation="1,0"
       id="guide23"
       inkscape:locked="false" />
  </sodipodi:namedview>
  <defs
     id="defs1">
    <rect
       x="427.0925"
       y="161.22035"
       width="419.31433"
       height="109.60155"
       id="rect18" />
  </defs>
  <g
     inkscape:groupmode="layer"
     id="layer2"
     inkscape:label="contact"
     transform="translate(-32.440975,-35.121987)">
    <path
       id="rect15-9"
       style="fill:#000000;fill-opacity:0;stroke:#000000;stroke-width:0.264024;stroke-dasharray:none;stroke-opacity:1"
       d="m 106.05,35.254 v 41.267 l 121.09199,5e-4 v -41.267 z"
       sodipodi:nodetypes="ccccc"
       inkscape:label="container" />
    <text
       xml:space="preserve"
       style="font-style:normal;font-variant:normal;font-weight:bold;font-stretch:normal;font-size:5.64444px;font-family:'Adwaita Mono';-inkscape-font-specification:'Adwaita Mono Bold';text-align:start;writing-mode:lr-tb;direction:ltr;text-anchor:start;fill:#000000;stroke-width:0.264583"
       x="115.77942"
       y="58.123142"
       id="text5"
       inkscape:label="desc"><tspan
         sodipodi:role="line"
         id="tspan4"
         style="font-style:normal;font-variant:normal;font-weight:normal;font-stretch:normal;font-size:5.64444px;font-family:'Adwaita Mono';-inkscape-font-specification:'Adwaita Mono';stroke-width:0.264583"
         x="115.77942"
         y="58.123142">email: faction0@protonmail.com</tspan><tspan
         sodipodi:role="line"
         style="font-style:normal;font-variant:normal;font-weight:normal;font-stretch:normal;font-size:5.64444px;font-family:'Adwaita Mono';-inkscape-font-specification:'Adwaita Mono';stroke-width:0.264583"
         x="115.77942"
         y="65.178696"
         id="tspan6">discord: memorable_username</tspan></text>
    <text
       xml:space="preserve"
       style="font-style:normal;font-variant:normal;font-weight:bold;font-stretch:normal;font-size:8.46667px;font-family:'Adwaita Mono';-inkscape-font-specification:'Adwaita Mono Bold';text-align:start;writing-mode:lr-tb;direction:ltr;text-anchor:start;fill:#000000;stroke-width:0.264583"
       x="115.55491"
       y="51.597996"
       id="text4"
       inkscape:label="title"><tspan
         sodipodi:role="line"
         id="tspan2"
         style="stroke-width:0.264583"
         x="115.55491"
         y="51.597996">contact</tspan></text>
  </g>
  <g
     inkscape:groupmode="layer"
     id="layer3"
     inkscape:label="name"
     transform="translate(-32.488987,-35.121987)">
    <path
       id="rect15"
       style="fill:#000000;fill-opacity:0;stroke:#000000;stroke-width:0.264024;stroke-dasharray:none;stroke-opacity:1"
       d="m 32.621,35.254 v 41.267 h 73.477 V 35.254 Z"
       sodipodi:nodetypes="ccccc"
       inkscape:label="container"
       transform="translate(-1.1875e-6)" />
    <text
       xml:space="preserve"
       style="font-style:normal;font-variant:normal;font-weight:bold;font-stretch:normal;font-size:5.64444px;font-family:'Adwaita Mono';-inkscape-font-specification:'Adwaita Mono Bold';text-align:start;writing-mode:lr-tb;direction:ltr;text-anchor:start;fill:#000000;stroke-width:0.264583"
       x="42.279434"
       y="58.123653"
       id="text5-9"
       inkscape:label="desc"
       transform="translate(-1.1875e-6)"><tspan
         sodipodi:role="line"
         id="tspan4-7"
         style="font-style:normal;font-variant:normal;font-weight:normal;font-stretch:normal;font-size:5.64444px;font-family:'Adwaita Mono';-inkscape-font-specification:'Adwaita Mono';stroke-width:0.264583"
         x="42.279434"
         y="58.123653">cybersec student</tspan><tspan
         sodipodi:role="line"
         style="font-style:normal;font-variant:normal;font-weight:normal;font-stretch:normal;font-size:5.64444px;font-family:'Adwaita Mono';-inkscape-font-specification:'Adwaita Mono';stroke-width:0.264583"
         x="42.279434"
         y="65.179207"
         id="tspan5">c++ developer</tspan></text>
    <text
       xml:space="preserve"
       style="font-style:normal;font-variant:normal;font-weight:bold;font-stretch:normal;font-size:8.46667px;font-family:'Adwaita Mono';-inkscape-font-specification:'Adwaita Mono Bold';text-align:start;writing-mode:lr-tb;direction:ltr;text-anchor:start;fill:#000000;stroke-width:0.264583"
       x="42.055195"
       y="51.596989"
       id="text4-7"
       inkscape:label="title"><tspan
         sodipodi:role="line"
         id="tspan2-5"
         style="stroke-width:0.264583"
         x="42.055195"
         y="51.596989">faction</tspan></text>
  </g>
  <g
     inkscape:groupmode="layer"
     id="layer4"
     inkscape:label="relevant"
     inkscape:highlight-color="#d705d0"
     transform="translate(-32.488987,-35.272975)"
     style="display:inline">
    <path
       id="rect15-2"
       style="display:inline;fill:#000000;fill-opacity:0;stroke:#000000;stroke-width:0.264024;stroke-dasharray:none;stroke-opacity:1"
       d="m 32.621,76.672 v 69.30599 H 227.19 V 76.672 Z"
       sodipodi:nodetypes="ccccc"
       inkscape:label="container"
       transform="translate(-1.1875e-6)" />
    <g
       inkscape:groupmode="layer"
       id="g8"
       inkscape:label="github"
       transform="translate(32.488988,35.272975)"
       style="display:inline">
      <path
         d="m 21.79657,66.222606 c -3.850619,0.8585 -7.006864,2.99212 -9.178361,6.22411 -3.800119,5.69387 -3.04262,13.33198 1.805372,18.20523 1.451873,1.46449 3.661244,2.87849 5.327742,3.42136 0.618624,0.202 0.694374,0.202 0.972123,0.0126 0.303,-0.202 0.315625,-0.2525 0.315625,-1.70437 v -1.48975 l -1.110998,0.0631 c -1.300373,0.0631 -2.310372,-0.16412 -2.916371,-0.68174 -0.214624,-0.17675 -0.631249,-0.78275 -0.921623,-1.33825 -0.47975,-0.93425 -0.833249,-1.3635 -1.817997,-2.23462 -0.32825,-0.29038 -0.340875,-0.303 -0.113625,-0.46713 0.542874,-0.404 1.641247,-0.0126 2.335621,0.82063 1.211998,1.47712 1.679122,1.86849 2.373496,2.01999 0.618624,0.12625 1.186748,0.0757 2.045247,-0.17675 0.113625,-0.0379 0.265125,-0.303 0.340874,-0.606 0.07575,-0.29037 0.27775,-0.73224 0.441875,-0.97212 l 0.302999,-0.44187 -1.022623,-0.202 c -2.146247,-0.44188 -3.47187,-1.212 -4.342993,-2.525 -0.807999,-1.212 -1.073124,-2.25987 -1.085749,-4.21674 0,-1.84325 0.202,-2.60075 0.997374,-3.636 0.353499,-0.4545 0.391374,-0.59337 0.290374,-0.8585 -0.189374,-0.45449 -0.138874,-2.37349 0.06312,-2.95424 0.164125,-0.42925 0.2525,-0.505 0.593374,-0.54288 0.568125,-0.0631 1.628623,0.303 2.701746,0.909 l 0.921624,0.53025 0.807998,-0.18937 c 1.148874,-0.26513 4.595493,-0.2525 5.630741,0 l 0.782749,0.202 0.732249,-0.44188 c 0.972124,-0.58075 2.209372,-1.03525 2.827996,-1.03525 0.492374,0 0.492374,0.0126 0.694373,0.6565 0.214625,0.74488 0.2525,2.09575 0.06312,2.73962 -0.100999,0.37875 -0.07575,0.49238 0.202,0.8585 1.376123,1.818 1.527623,4.83537 0.366124,7.30987 -0.782748,1.62862 -2.436621,2.76487 -4.658617,3.18149 l -1.060498,0.202 0.391374,0.69438 0.403999,0.70699 0.03787,2.81537 0.0505,2.81538 0.315625,0.20199 c 0.290374,0.18938 0.353499,0.18938 0.959498,-0.0252 1.009999,-0.34087 2.739621,-1.27512 3.686494,-1.99474 5.630741,-4.21675 7.448738,-11.77911 4.330368,-18.06635 -1.830622,-3.69912 -5.289866,-6.53973 -9.25411,-7.60024 -1.729622,-0.4545 -4.986867,-0.5555 -6.628114,-0.18937 z"
         id="path1"
         style="display:inline;stroke-width:0.012625"
         inkscape:label="logo path" />
      <a
         id="a2-9-1"
         xlink:href="https://github.com/faction0"
         style="display:inline"
         transform="matrix(0.99999996,0,0,1.0070275,-32.377089,-69.277079)"
         inkscape:label="logo anchor"
         target="_parent">
        <path
           d="m 54.285572,134.55566 c -3.85062,0.8585 -7.00686,2.99212 -9.17836,6.22411 -3.80012,5.69387 -3.04262,13.33198 1.80537,18.20523 1.45187,1.46449 3.66124,2.87849 5.32774,3.42136 0.61863,0.202 0.69438,0.202 0.97213,0.0126 3.42582,0.10271 7.97896,0.0126 7.97896,0.0126 0.29037,0.18938 0.3535,0.18938 0.9595,-0.0252 1.01,-0.34087 2.73962,-1.27512 3.68649,-1.99474 5.63074,-4.21675 7.44874,-11.77911 4.33037,-18.06635 -1.83062,-3.69912 -5.28987,-6.53973 -9.25411,-7.60024 -1.72962,-0.4545 -4.98687,-0.5555 -6.62812,-0.18937 z"
           id="path2-3-5"
           style="display:inline;fill:#000000;fill-opacity:0;stroke-width:0.012625"
           inkscape:label="that"
           transform="translate(-1.1875e-6)"
           sodipodi:nodetypes="cccccccccccc" />
      </a>
      <a
         id="a4-1"
         xlink:href="https://github.com/faction0"
         target="_parent"
         style="display:inline"
         transform="translate(-73.364608,-74.342449)"
         inkscape:label="text anchor">
        <text
           xml:space="preserve"
           style="font-style:normal;font-variant:normal;font-weight:normal;font-stretch:normal;font-size:5.64444px;font-family:'Adwaita Mono';-inkscape-font-specification:'Adwaita Mono';text-align:start;writing-mode:lr-tb;direction:ltr;text-anchor:start;display:inline;fill:#000000;stroke-width:0.264583"
           x="87.917053"
           y="175.05312"
           id="text3-0"
           inkscape:label="that"><tspan
             sodipodi:role="line"
             style="font-style:normal;font-variant:normal;font-weight:normal;font-stretch:normal;font-size:5.64444px;font-family:'Adwaita Mono';-inkscape-font-specification:'Adwaita Mono';stroke-width:0.264583"
             x="87.917053"
             y="175.05312"
             id="tspan3-6">github</tspan></text>
      </a>
    </g>
    <g
       inkscape:groupmode="layer"
       id="layer1"
       inkscape:label="taiko"
       transform="translate(32.488988,35.272975)"
       style="display:inline">
      <path
         fill="currentColor"
         d="m 62.439738,71.23961 c -1.684891,0 -3.246496,0.42122 -4.684816,1.26366 -1.376677,0.82189 -2.475964,1.92118 -3.297863,3.29787 -0.842443,1.43832 -1.263664,2.99992 -1.263664,4.68481 0,1.68489 0.421221,3.24649 1.263664,4.68481 0.821899,1.37669 1.921186,2.47598 3.297863,3.29787 1.43832,0.84244 2.999925,1.26366 4.684816,1.26366 1.68489,0 3.246492,-0.42122 4.684804,-1.26366 1.376679,-0.82189 2.475969,-1.92118 3.297879,-3.29787 0.84244,-1.43832 1.26366,-2.99992 1.26366,-4.68481 0,-1.68489 -0.42122,-3.24649 -1.26366,-4.68481 -0.82191,-1.37669 -1.9212,-2.47598 -3.297879,-3.29787 -1.438312,-0.84244 -2.999914,-1.26366 -4.684804,-1.26366 z m -6.164228,9.24634 c 0,-1.41777 0.44177,-2.68144 1.32531,-3.79101 0.883537,-1.10956 1.982825,-1.83899 3.297862,-2.1883 V 86.46526 C 59.563097,86.11595 58.46381,85.38652 57.60082,84.27696 56.737827,83.16739 56.296057,81.90372 56.27551,80.48595 Z m 7.705287,5.97931 V 74.50664 c 1.335583,0.34931 2.445143,1.07874 3.328675,2.1883 0.883539,1.10957 1.315039,2.37324 1.294489,3.79101 -0.0205,1.41777 -0.45203,2.68144 -1.294489,3.79101 -0.842432,1.10956 -1.951997,1.83899 -3.328675,2.1883 z M 62.439738,68.4657 c 2.178028,0 4.201948,0.54451 6.071763,1.63352 1.80818,1.06847 3.2465,2.50679 4.31497,4.31496 1.08901,1.86982 1.63352,3.89374 1.63352,6.07177 0,2.17803 -0.54451,4.20195 -1.63352,6.07177 -1.06847,1.80817 -2.50679,3.24649 -4.31497,4.31496 -1.869815,1.08901 -3.893735,1.63352 -6.071763,1.63352 -2.178027,0 -4.201949,-0.54451 -6.071764,-1.63352 -1.808176,-1.06847 -3.246496,-2.50679 -4.314961,-4.31496 -1.089015,-1.86982 -1.633523,-3.89374 -1.633523,-6.07177 0,-2.17803 0.544508,-4.20195 1.633523,-6.07177 1.068465,-1.80817 2.506785,-3.24649 4.314961,-4.31496 1.869815,-1.08901 3.893737,-1.63352 6.071764,-1.63352 z m 0,-2.4657 c -1.9931,0 -3.862916,0.36986 -5.609449,1.10957 -1.746531,0.73971 -3.287587,1.78762 -4.62317,3.14375 -1.315037,1.27395 -2.352684,2.79446 -3.112939,4.56153 -0.760255,1.76709 -1.140382,3.65745 -1.140382,5.6711 0,2.01365 0.380127,3.88346 1.140382,5.60945 0.760255,1.72599 1.797902,3.26705 3.112939,4.62318 1.27394,1.31503 2.804723,2.35268 4.592349,3.11293 1.787627,0.76026 3.667717,1.14039 5.64027,1.14039 1.972553,0 3.842372,-0.36986 5.609443,-1.10957 1.76709,-0.73971 3.30815,-1.78762 4.62318,-3.14375 1.31503,-1.27395 2.35268,-2.80473 3.11293,-4.59236 0.76026,-1.78763 1.14039,-3.66772 1.14039,-5.64027 0,-1.97255 -0.36985,-3.84237 -1.10956,-5.60945 -0.73971,-1.76708 -1.78763,-3.30814 -3.14376,-4.62318 -1.27394,-1.31503 -2.79445,-2.35268 -4.56154,-3.11293 C 66.34375,66.38013 64.453386,66 62.439738,66 Z"
         id="path1-5"
         style="display:inline;stroke-width:0.0308211"
         inkscape:label="logo path"
         sodipodi:nodetypes="sccsccsccsccscsccscccssscsccsccsccsccssscssscssscssscss" />
      <a
         id="a2-9"
         xlink:href="https://osu.ppy.sh/u/faction"
         style="display:inline"
         transform="matrix(1,0,0,1.0257673,5.1713889,-71.794454)"
         inkscape:label="logo anchor"
         target="_parent">
        <path
           d="m 54.285572,134.55566 c -3.85062,0.8585 -7.00686,2.99212 -9.17836,6.22411 -3.80012,5.69387 -3.04262,13.33198 1.80537,18.20523 1.45187,1.46449 3.66124,2.87849 5.32774,3.42136 0.61863,0.202 0.69438,0.202 0.97213,0.0126 3.42582,0.10271 7.97896,0.0126 7.97896,0.0126 0.29037,0.18938 0.3535,0.18938 0.9595,-0.0252 1.01,-0.34087 2.73962,-1.27512 3.68649,-1.99474 5.63074,-4.21675 7.44874,-11.77911 4.33037,-18.06635 -1.83062,-3.69912 -5.28987,-6.53973 -9.25411,-7.60024 -1.72962,-0.4545 -4.98687,-0.5555 -6.62812,-0.18937 z"
           id="path2-3"
           style="display:inline;fill:#000000;fill-opacity:0;stroke-width:0.012625"
           inkscape:label="that"
           transform="translate(-1.1875e-6)"
           sodipodi:nodetypes="cccccccccccc" />
      </a>
      <a
         id="a4"
         xlink:href="https://osu.ppy.sh/u/faction"
         target="_parent"
         style="display:inline"
         transform="translate(-32.24676,-68.257044)"
         inkscape:label="text anchor">
        <text
           xml:space="preserve"
           style="font-style:normal;font-variant:normal;font-weight:normal;font-stretch:normal;font-size:5.64444px;font-family:'Adwaita Mono';-inkscape-font-specification:'Adwaita Mono';text-align:start;writing-mode:lr-tb;direction:ltr;text-anchor:start;display:inline;fill:#000000;stroke-width:0.264583"
           x="86.197258"
           y="168.9677"
           id="text3"
           inkscape:label="that"><tspan
             sodipodi:role="line"
             style="font-style:normal;font-variant:normal;font-weight:normal;font-stretch:normal;font-size:5.64444px;font-family:'Adwaita Mono';-inkscape-font-specification:'Adwaita Mono';stroke-width:0.264583"
             x="86.197258"
             y="168.9677"
             id="tspan3">taiko</tspan></text>
      </a>
    </g>
    <text
       xml:space="preserve"
       style="font-style:normal;font-variant:normal;font-weight:bold;font-stretch:normal;font-size:3.52778px;font-family:'Adwaita Mono';-inkscape-font-specification:'Adwaita Mono Bold';text-align:start;writing-mode:lr-tb;direction:ltr;text-anchor:start;display:inline;fill:#000000;stroke-width:0.264583"
       x="115.34821"
       y="91.686836"
       id="text4-9-8"
       inkscape:label="lil text"><tspan
         sodipodi:role="line"
         id="tspan2-3-4"
         style="font-style:italic;font-variant:normal;font-weight:normal;font-stretch:normal;font-size:3.52778px;font-family:'Adwaita Mono';-inkscape-font-specification:'Adwaita Mono Italic';stroke-width:0.264583"
         x="115.34821"
         y="91.686836">(click to go)</tspan></text>
    <text
       xml:space="preserve"
       style="font-style:normal;font-variant:normal;font-weight:bold;font-stretch:normal;font-size:8.46667px;font-family:'Adwaita Mono';-inkscape-font-specification:'Adwaita Mono Bold';text-align:start;writing-mode:lr-tb;direction:ltr;text-anchor:start;display:inline;fill:#000000;stroke-width:0.264583"
       x="41.503857"
       y="93.02198"
       id="text4-9"
       inkscape:label="title"
       transform="translate(-1.1875e-6)"><tspan
         sodipodi:role="line"
         id="tspan2-3"
         style="stroke-width:0.264583"
         x="41.503857"
         y="93.02198">relevant stuff</tspan></text>
  </g>
  <g
     inkscape:groupmode="layer"
     id="layer5"
     inkscape:label="extra"
     transform="translate(-32.488987,-35.121987)">
    <path
       id="rect25"
       style="fill:#ffffff;fill-opacity:1;stroke:#ffffff;stroke-width:0.236707;stroke-dasharray:none;stroke-opacity:1"
       d="m 184.78285,143.06188 v 4.4378 h 39.48329 v -4.4378 z"
       sodipodi:nodetypes="ccccc"
       inkscape:label="url bg" />
    <a
       id="a8"
       inkscape:label="old lady bingo"
       target="_parent"
       xlink:href="https://faction.im">
      <text
         xml:space="preserve"
         style="font-style:normal;font-variant:normal;font-weight:bold;font-stretch:normal;font-size:3.52778px;font-family:'Adwaita Mono';-inkscape-font-specification:'Adwaita Mono Bold';text-align:start;writing-mode:lr-tb;direction:ltr;text-anchor:start;display:inline;fill:#000000;stroke-width:0.264583"
         x="185.43555"
         y="146.82236"
         id="text4-9-8-5"
         inkscape:label="that"><tspan
           sodipodi:role="line"
           id="tspan2-3-4-6"
           style="font-style:normal;font-variant:normal;font-weight:normal;font-stretch:normal;font-size:3.52778px;font-family:'Adwaita Mono';-inkscape-font-specification:'Adwaita Mono Italic';stroke-width:0.264583"
           x="185.43555"
           y="146.82236">https://faction.im</tspan></text>
    </a>
  </g>
</svg>
