<?xml version="1.0" encoding="UTF-8" standalone="no"?>
<!-- Created with Inkscape (http://www.inkscape.org/) -->

<svg
   width="124.39503mm"
   height="146.67024mm"
   viewBox="0 0 124.39503 146.67024"
   version="1.1"
   id="svg1"
   sodipodi:docname="mobile.svg"
   inkscape:version="1.4.2 (ebf0e940d0, 2025-05-08)"
   xmlns:inkscape="http://www.inkscape.org/namespaces/inkscape"
   xmlns:sodipodi="http://sodipodi.sourceforge.net/DTD/sodipodi-0.dtd"
   xmlns:xlink="http://www.w3.org/1999/xlink"
   xmlns="http://www.w3.org/2000/svg"
   xmlns:svg="http://www.w3.org/2000/svg">
  <sodipodi:namedview
     id="namedview1"
     pagecolor="#ffffff"
     bordercolor="#000000"
     borderopacity="0.25"
     inkscape:showpageshadow="2"
     inkscape:pageopacity="0.0"
     inkscape:pagecheckerboard="0"
     inkscape:deskcolor="#d1d1d1"
     inkscape:document-units="mm"
     showguides="true"
     inkscape:zoom="1.0000001"
     inkscape:cx="61.499997"
     inkscape:cy="271.49999"
     inkscape:window-width="1276"
     inkscape:window-height="1060"
     inkscape:window-x="0"
     inkscape:window-y="0"
     inkscape:window-maximized="0"
     inkscape:current-layer="layer1">
     <style>
 @font-face {
    font-family: 'Adwaita Mono';
    src: url("AdwaitaMono-Regular.woff2") format("woff2");
    font-style: normal;
    font-weight: normal;
}

@font-face {
    font-family: 'Adwaita Mono';
    src: url("AdwaitaMono-Bold.woff2") format("woff2");
    font-style: normal;
    font-weight: bold;
}

@font-face {
    src: url("AdwaitaMono-Italic.woff2") format("woff2");
    font-family: 'Adwaita Mono';
    font-style: italic;
    font-weight: normal;
}

 </style>
    <sodipodi:guide
       position="32.664658,286.87514"
       orientation="0,1"
       id="guide3"
       inkscape:locked="false"
       inkscape:label=""
       inkscape:color="rgb(0,134,229)" />
    <sodipodi:guide
       position="10.251555,283.84794"
       orientation="1,0"
       id="guide4"
       inkscape:locked="false" />
    <sodipodi:guide
       position="124.67351,143.20949"
       orientation="0,-1"
       id="guide5"
       inkscape:locked="false" />
    <sodipodi:guide
       position="273.89851,213.32408"
       orientation="1,0"
       id="guide6"
       inkscape:locked="false" />
    <sodipodi:guide
       position="0.25155242,259.859"
       orientation="-1,0"
       id="guide9"
       inkscape:locked="false"
       inkscape:label=""
       inkscape:color="rgb(0,134,229)" />
    <sodipodi:guide
       position="24.330283,296.87514"
       orientation="0,1"
       id="guide10"
       inkscape:locked="false"
       inkscape:label=""
       inkscape:color="rgb(0,134,229)" />
    <sodipodi:guide
       position="63.4875,277.58565"
       orientation="1,0"
       id="guide11"
       inkscape:locked="false" />
    <sodipodi:guide
       position="73.487501,277.58565"
       orientation="-1,0"
       id="guide12"
       inkscape:label=""
       inkscape:locked="false"
       inkscape:color="rgb(0,134,229)" />
    <sodipodi:guide
       position="44.554372,255.72811"
       orientation="0,1"
       id="guide14"
       inkscape:label=""
       inkscape:locked="false"
       inkscape:color="rgb(0,134,229)" />
    <sodipodi:guide
       position="25.08755,247.2422"
       orientation="0,-1"
       id="guide20"
       inkscape:locked="false" />
    <sodipodi:guide
       position="25.08755,257.2422"
       orientation="0,1"
       id="guide21"
       inkscape:label=""
       inkscape:locked="false"
       inkscape:color="rgb(0,134,229)" />
    <sodipodi:guide
       position="39.195205,220.97378"
       orientation="1,0"
       id="guide23"
       inkscape:locked="false" />
  </sodipodi:namedview>
  <defs
     id="defs1">
    <rect
       x="427.0925"
       y="161.22035"
       width="419.31433"
       height="109.60155"
       id="rect18" />
  </defs>
  <g
     inkscape:groupmode="layer"
     id="layer2"
     inkscape:label="contact"
     transform="translate(-32.440976,-35.121987)">
    <path
       id="rect15-9"
       style="fill:#000000;fill-opacity:0;stroke:#000000;stroke-width:0.264024;stroke-dasharray:none;stroke-opacity:1"
       d="m 32.572988,68.244013 v 41.266997 l 124.131002,5e-4 V 68.244513 Z"
       sodipodi:nodetypes="ccccc"
       inkscape:label="container" />
    <text
       xml:space="preserve"
       style="font-style:normal;font-variant:normal;font-weight:normal;font-stretch:normal;font-size:5.64444px;font-family:'Adwaita Mono';-inkscape-font-specification:'Adwaita Mono';text-align:start;writing-mode:lr-tb;direction:ltr;text-anchor:start;fill:#000000;stroke-width:0.264583"
       x="42.301998"
       y="91.113312"
       id="text6-36"
       inkscape:label="desc"><tspan
         sodipodi:role="line"
         style="font-style:normal;font-variant:normal;font-weight:normal;font-stretch:normal;font-size:5.64444px;font-family:'Adwaita Mono';-inkscape-font-specification:'Adwaita Mono';stroke-width:0.264583"
         x="42.301998"
         y="91.113312"
         id="tspan8-6">email: faction0@protonmail.com</tspan><tspan
         sodipodi:role="line"
         style="font-style:normal;font-variant:normal;font-weight:normal;font-stretch:normal;font-size:5.64444px;font-family:'Adwaita Mono';-inkscape-font-specification:'Adwaita Mono';stroke-width:0.264583"
         x="42.301998"
         y="98.168861"
         id="tspan18">discord: 000000000000141360 </tspan><tspan
         sodipodi:role="line"
         style="font-style:normal;font-variant:normal;font-weight:normal;font-stretch:normal;font-size:5.64444px;font-family:'Adwaita Mono';-inkscape-font-specification:'Adwaita Mono';stroke-width:0.264583"
         x="42.301998"
         y="105.22441"
         id="tspan9-2" /></text>
    <text
       xml:space="preserve"
       style="font-style:normal;font-variant:normal;font-weight:normal;font-stretch:normal;font-size:8.46667px;font-family:'Adwaita Mono';-inkscape-font-specification:'Adwaita Mono';text-align:start;writing-mode:lr-tb;direction:ltr;text-anchor:start;fill:#000000;stroke-width:0.264583"
       x="42.077816"
       y="84.58773"
       id="text1-0"
       inkscape:label="title"><tspan
         sodipodi:role="line"
         id="tspan1-9"
         style="font-style:normal;font-variant:normal;font-weight:bold;font-stretch:normal;font-size:8.46667px;font-family:'Adwaita Mono';-inkscape-font-specification:'Adwaita Mono Bold';stroke-width:0.264583"
         x="42.077816"
         y="84.58773">contact</tspan></text>
  </g>
  <g
     inkscape:groupmode="layer"
     id="layer3"
     inkscape:label="name"
     transform="translate(-32.488988,-35.121987)">
    <path
       id="rect15"
       style="fill:#000000;fill-opacity:0;stroke:#000000;stroke-width:0.264024;stroke-dasharray:none;stroke-opacity:1"
       d="m 32.621,35.254 v 32.98975 l 124.131,5e-4 V 35.2545 Z"
       sodipodi:nodetypes="ccccc"
       inkscape:label="container"
       transform="translate(-1.1875e-6)" />
    <text
       xml:space="preserve"
       style="font-style:normal;font-variant:normal;font-weight:normal;font-stretch:normal;font-size:5.64444px;font-family:'Adwaita Mono';-inkscape-font-specification:'Adwaita Mono';text-align:start;writing-mode:lr-tb;direction:ltr;text-anchor:start;fill:#000000;stroke-width:0.264583"
       x="42.279655"
       y="58.123226"
       id="text6"
       inkscape:label="desc"><tspan
         sodipodi:role="line"
         style="font-style:normal;font-variant:normal;font-weight:normal;font-stretch:normal;font-size:5.64444px;font-family:'Adwaita Mono';-inkscape-font-specification:'Adwaita Mono';stroke-width:0.264583"
         x="42.279655"
         y="58.123226"
         id="tspan8">cybersec student, c++ developer</tspan><tspan
         sodipodi:role="line"
         style="font-style:normal;font-variant:normal;font-weight:normal;font-stretch:normal;font-size:5.64444px;font-family:'Adwaita Mono';-inkscape-font-specification:'Adwaita Mono';stroke-width:0.264583"
         x="42.279655"
         y="65.17878"
         id="tspan2" /><tspan
         sodipodi:role="line"
         style="font-style:normal;font-variant:normal;font-weight:normal;font-stretch:normal;font-size:5.64444px;font-family:'Adwaita Mono';-inkscape-font-specification:'Adwaita Mono';stroke-width:0.264583"
         x="42.279655"
         y="72.234329"
         id="tspan9" /></text>
    <text
       xml:space="preserve"
       style="font-style:normal;font-variant:normal;font-weight:normal;font-stretch:normal;font-size:8.46667px;font-family:'Adwaita Mono';-inkscape-font-specification:'Adwaita Mono';text-align:start;writing-mode:lr-tb;direction:ltr;text-anchor:start;fill:#000000;stroke-width:0.264583"
       x="42.055454"
       y="51.597645"
       id="text1"
       inkscape:label="title"><tspan
         sodipodi:role="line"
         id="tspan1"
         style="font-style:normal;font-variant:normal;font-weight:bold;font-stretch:normal;font-size:8.46667px;font-family:'Adwaita Mono';-inkscape-font-specification:'Adwaita Mono Bold';stroke-width:0.264583"
         x="42.055454"
         y="51.597645">faction</tspan></text>
  </g>
  <g
     inkscape:groupmode="layer"
     id="layer4"
     inkscape:label="relevant"
     inkscape:highlight-color="#d705d0"
     transform="translate(-32.488988,-35.272975)"
     style="display:inline">
    <path
       id="rect15-2"
       style="display:inline;fill:#000000;fill-opacity:0;stroke:#000000;stroke-width:0.264024;stroke-dasharray:none;stroke-opacity:1"
       d="m 32.621012,109.662 v 69.30599 H 156.752 V 109.662 Z"
       sodipodi:nodetypes="ccccc"
       inkscape:label="container"
       transform="translate(-1.1875e-6)" />
    <g
       inkscape:groupmode="layer"
       id="layer1"
       inkscape:label="taiko">
      <a
         id="a4"
         xlink:href="https://osu.ppy.sh/u/faction"
         target="_parent"
         style="display:inline"
         transform="translate(-1.1875e-6)"
         inkscape:label="github text">
        <text
           xml:space="preserve"
           style="font-style:normal;font-variant:normal;font-weight:normal;font-stretch:normal;font-size:5.64444px;font-family:'Adwaita Mono';-inkscape-font-specification:'Adwaita Mono';text-align:start;writing-mode:lr-tb;direction:ltr;text-anchor:start;display:inline;fill:#000000;stroke-width:0.264583"
           x="86.197258"
           y="168.9677"
           id="text3"
           inkscape:label="that"><tspan
             sodipodi:role="line"
             style="font-style:normal;font-variant:normal;font-weight:normal;font-stretch:normal;font-size:5.64444px;font-family:'Adwaita Mono';-inkscape-font-specification:'Adwaita Mono';stroke-width:0.264583"
             x="86.197258"
             y="168.9677"
             id="tspan3">taiko</tspan></text>
      </a>
      <path
         fill="currentColor"
         d="m 94.6865,139.55089 c -1.684891,0 -3.246496,0.42122 -4.684816,1.26366 -1.376677,0.82189 -2.475964,1.92118 -3.297863,3.29787 -0.842443,1.43832 -1.263664,2.99992 -1.263664,4.68481 0,1.68489 0.421221,3.24649 1.263664,4.68481 0.821899,1.37669 1.921186,2.47598 3.297863,3.29787 1.43832,0.84244 2.999925,1.26366 4.684816,1.26366 1.68489,0 3.246494,-0.42122 4.684811,-1.26366 1.376679,-0.82189 2.475969,-1.92118 3.297869,-3.29787 0.84244,-1.43832 1.26366,-2.99992 1.26366,-4.68481 0,-1.68489 -0.42122,-3.24649 -1.26366,-4.68481 -0.8219,-1.37669 -1.92119,-2.47598 -3.297869,-3.29787 -1.438317,-0.84244 -2.999921,-1.26366 -4.684811,-1.26366 z m -6.164228,9.24634 c 0,-1.41777 0.44177,-2.68144 1.32531,-3.79101 0.883537,-1.10956 1.982825,-1.83899 3.297862,-2.1883 v 11.95862 c -1.335585,-0.34931 -2.434872,-1.07874 -3.297862,-2.1883 -0.862993,-1.10957 -1.304763,-2.37324 -1.32531,-3.79101 z m 7.705287,5.97931 v -11.95862 c 1.335583,0.34931 2.445144,1.07874 3.328682,2.1883 0.883539,1.10957 1.315039,2.37324 1.294489,3.79101 -0.0205,1.41777 -0.45203,2.68144 -1.294489,3.79101 -0.842443,1.10956 -1.952004,1.83899 -3.328682,2.1883 z M 94.6865,136.77698 c 2.178028,0 4.201951,0.54451 6.07177,1.63352 1.80817,1.06847 3.24649,2.50679 4.31496,4.31496 1.08901,1.86982 1.63352,3.89374 1.63352,6.07177 0,2.17803 -0.54451,4.20195 -1.63352,6.07177 -1.06847,1.80817 -2.50679,3.24649 -4.31496,4.31496 -1.869819,1.08901 -3.893742,1.63352 -6.07177,1.63352 -2.178027,0 -4.201949,-0.54451 -6.071764,-1.63352 -1.808176,-1.06847 -3.246496,-2.50679 -4.314961,-4.31496 -1.089015,-1.86982 -1.633523,-3.89374 -1.633523,-6.07177 0,-2.17803 0.544508,-4.20195 1.633523,-6.07177 1.068465,-1.80817 2.506785,-3.24649 4.314961,-4.31496 1.869815,-1.08901 3.893737,-1.63352 6.071764,-1.63352 z m 0,-2.4657 c -1.9931,0 -3.862916,0.36986 -5.609449,1.10957 -1.746531,0.73971 -3.287587,1.78762 -4.62317,3.14375 -1.315037,1.27395 -2.352684,2.79446 -3.112939,4.56153 -0.760255,1.76709 -1.140382,3.65745 -1.140382,5.6711 0,2.01365 0.380127,3.88346 1.140382,5.60945 0.760255,1.72599 1.797902,3.26705 3.112939,4.62318 1.27394,1.31503 2.804723,2.35268 4.592349,3.11293 1.787627,0.76026 3.667717,1.14039 5.64027,1.14039 1.972553,0 3.84237,-0.36986 5.60945,-1.10957 1.76708,-0.73971 3.30814,-1.78762 4.62317,-3.14375 1.31503,-1.27395 2.35268,-2.80473 3.11293,-4.59236 0.76026,-1.78763 1.14039,-3.66772 1.14039,-5.64027 0,-1.97255 -0.36985,-3.84237 -1.10956,-5.60945 -0.73971,-1.76708 -1.78763,-3.30814 -3.14376,-4.62318 -1.27394,-1.31503 -2.79445,-2.35268 -4.56153,-3.11293 -1.767079,-0.76026 -3.657442,-1.14039 -5.67109,-1.14039 z"
         id="path1-5"
         style="display:inline;stroke-width:0.0308211"
         inkscape:label="taiko logo"
         sodipodi:nodetypes="sccsccsccsccscsccscccssscsccsccsccsccssscssscssscssscss"
         transform="translate(-1.1875e-6)" />
      <a
         id="a2-9"
         xlink:href="https://osu.ppy.sh/u/faction"
         style="display:inline"
         transform="matrix(1,0,0,1.0257673,37.418148,-3.5011618)"
         inkscape:label="logo anchor"
         target="_parent">
        <path
           d="m 54.285572,134.55566 c -3.85062,0.8585 -7.00686,2.99212 -9.17836,6.22411 -3.80012,5.69387 -3.04262,13.33198 1.80537,18.20523 1.45187,1.46449 3.66124,2.87849 5.32774,3.42136 0.61863,0.202 0.69438,0.202 0.97213,0.0126 3.42582,0.10271 7.97896,0.0126 7.97896,0.0126 0.29037,0.18938 0.3535,0.18938 0.9595,-0.0252 1.01,-0.34087 2.73962,-1.27512 3.68649,-1.99474 5.63074,-4.21675 7.44874,-11.77911 4.33037,-18.06635 -1.83062,-3.69912 -5.28987,-6.53973 -9.25411,-7.60024 -1.72962,-0.4545 -4.98687,-0.5555 -6.62812,-0.18937 z"
           id="path2-3"
           style="display:inline;fill:#000000;fill-opacity:0;stroke-width:0.012625"
           inkscape:label="that"
           transform="translate(-1.1875e-6)"
           sodipodi:nodetypes="cccccccccccc" />
      </a>
    </g>
    <g
       inkscape:groupmode="layer"
       id="layer6"
       inkscape:label="github">
      <a
         id="a1"
         xlink:href="https://github.com/faction0"
         target="_parent"
         inkscape:label="github text"
         style="display:inline"
         transform="translate(-1.1875e-6)">
        <text
           xml:space="preserve"
           style="font-style:normal;font-variant:normal;font-weight:normal;font-stretch:normal;font-size:5.64444px;font-family:'Adwaita Mono';-inkscape-font-specification:'Adwaita Mono';text-align:start;writing-mode:lr-tb;direction:ltr;text-anchor:start;display:inline;fill:#000000;stroke-width:0.264583"
           x="47.041458"
           y="168.9677"
           id="text6-4"
           inkscape:label="that"><tspan
             sodipodi:role="line"
             style="font-style:normal;font-variant:normal;font-weight:normal;font-stretch:normal;font-size:5.64444px;font-family:'Adwaita Mono';-inkscape-font-specification:'Adwaita Mono';stroke-width:0.264583"
             x="47.041458"
             y="168.9677"
             id="tspan9-4">github</tspan></text>
      </a>
      <path
         d="m 54.285572,134.55566 c -3.85062,0.8585 -7.00686,2.99212 -9.17836,6.22411 -3.80012,5.69387 -3.04262,13.33198 1.80537,18.20523 1.45187,1.46449 3.66124,2.87849 5.32774,3.42136 0.61863,0.202 0.69438,0.202 0.97213,0.0126 0.303,-0.202 0.31562,-0.2525 0.31562,-1.70437 v -1.48975 l -1.111,0.0631 c -1.30037,0.0631 -2.31037,-0.16412 -2.91637,-0.68174 -0.21462,-0.17675 -0.63125,-0.78275 -0.92162,-1.33825 -0.47975,-0.93425 -0.83325,-1.3635 -1.818,-2.23462 -0.32825,-0.29038 -0.34087,-0.303 -0.11362,-0.46713 0.54287,-0.404 1.64124,-0.0126 2.33562,0.82063 1.212,1.47712 1.67912,1.86849 2.37349,2.01999 0.61863,0.12625 1.18675,0.0757 2.04525,-0.17675 0.11363,-0.0379 0.26513,-0.303 0.34087,-0.606 0.0757,-0.29037 0.27775,-0.73224 0.44188,-0.97212 l 0.303,-0.44187 -1.02262,-0.202 c -2.14625,-0.44188 -3.47187,-1.212 -4.343,-2.525 -0.808,-1.212 -1.07312,-2.25987 -1.08575,-4.21674 0,-1.84325 0.202,-2.60075 0.99738,-3.636 0.3535,-0.4545 0.39137,-0.59337 0.29037,-0.8585 -0.18937,-0.45449 -0.13887,-2.37349 0.0631,-2.95424 0.16413,-0.42925 0.2525,-0.505 0.59338,-0.54288 0.56812,-0.0631 1.62862,0.303 2.70174,0.909 l 0.92163,0.53025 0.80799,-0.18937 c 1.14888,-0.26513 4.5955,-0.2525 5.63074,0 l 0.78275,0.202 0.73225,-0.44188 c 0.97213,-0.58075 2.20937,-1.03525 2.828,-1.03525 0.49237,0 0.49237,0.0126 0.69437,0.6565 0.21463,0.74488 0.2525,2.09575 0.0631,2.73962 -0.101,0.37875 -0.0757,0.49238 0.202,0.8585 1.37612,1.818 1.52762,4.83537 0.36613,7.30987 -0.78275,1.62862 -2.43663,2.76487 -4.65862,3.18149 l -1.0605,0.202 0.39137,0.69438 0.404,0.70699 0.0379,2.81537 0.0505,2.81538 0.31563,0.20199 c 0.29037,0.18938 0.3535,0.18938 0.9595,-0.0252 1.01,-0.34087 2.73962,-1.27512 3.68649,-1.99474 5.63074,-4.21675 7.44874,-11.77911 4.33037,-18.06635 -1.83062,-3.69912 -5.28987,-6.53973 -9.25411,-7.60024 -1.72962,-0.4545 -4.98687,-0.5555 -6.62812,-0.18937 z"
         id="path1"
         style="display:inline;stroke-width:0.012625"
         inkscape:label="github logo"
         transform="translate(-1.1875e-6)" />
      <a
         id="a2"
         xlink:href="https://github.com/faction0"
         style="display:inline"
         transform="translate(-1.1875e-6)"
         inkscape:label="logo anchor"
         target="_parent">
        <path
           d="m 54.285572,134.55566 c -3.85062,0.8585 -7.00686,2.99212 -9.17836,6.22411 -3.80012,5.69387 -3.04262,13.33198 1.80537,18.20523 1.45187,1.46449 3.66124,2.87849 5.32774,3.42136 0.61863,0.202 0.69438,0.202 0.97213,0.0126 3.42582,0.10271 7.97896,0.0126 7.97896,0.0126 0.29037,0.18938 0.3535,0.18938 0.9595,-0.0252 1.01,-0.34087 2.73962,-1.27512 3.68649,-1.99474 5.63074,-4.21675 7.44874,-11.77911 4.33037,-18.06635 -1.83062,-3.69912 -5.28987,-6.53973 -9.25411,-7.60024 -1.72962,-0.4545 -4.98687,-0.5555 -6.62812,-0.18937 z"
           id="path2"
           style="display:inline;stroke-width:0.012625;fill:#000000;fill-opacity:0"
           inkscape:label="that"
           transform="translate(-1.1875e-6)"
           sodipodi:nodetypes="cccccccccccc" />
      </a>
    </g>
    <text
       xml:space="preserve"
       style="font-style:normal;font-variant:normal;font-weight:normal;font-stretch:normal;font-size:3.52778px;font-family:'Adwaita Mono';-inkscape-font-specification:'Adwaita Mono';text-align:start;writing-mode:lr-tb;direction:ltr;text-anchor:start;fill:#000000;stroke-width:0.264583"
       x="115.34161"
       y="124.67713"
       id="text25-7"
       inkscape:label="lil text"><tspan
         sodipodi:role="line"
         id="tspan25-2"
         style="font-style:italic;font-variant:normal;font-weight:normal;font-stretch:normal;font-size:3.52778px;font-family:'Adwaita Mono';-inkscape-font-specification:'Adwaita Mono Bold';stroke-width:0.264583"
         x="115.34161"
         y="124.67713">(tap to go)</tspan></text>
    <text
       xml:space="preserve"
       style="font-style:normal;font-variant:normal;font-weight:normal;font-stretch:normal;font-size:8.46667px;font-family:'Adwaita Mono';-inkscape-font-specification:'Adwaita Mono';text-align:start;writing-mode:lr-tb;direction:ltr;text-anchor:start;display:inline;fill:#000000;stroke-width:0.264583"
       x="41.503372"
       y="126.01198"
       id="text1-0-0"
       inkscape:label="title"><tspan
         sodipodi:role="line"
         id="tspan1-9-3"
         style="font-style:normal;font-variant:normal;font-weight:bold;font-stretch:normal;font-size:8.46667px;font-family:'Adwaita Mono';-inkscape-font-specification:'Adwaita Mono Bold';stroke-width:0.264583"
         x="41.503372"
         y="126.01198">relevant stuff</tspan></text>
  </g>
  <g
     inkscape:groupmode="layer"
     id="layer5"
     inkscape:label="extra"
     transform="translate(-32.488988,-35.121987)">
    <path
       id="rect25"
       style="fill:#ffffff;fill-opacity:1;stroke:#ffffff;stroke-width:0.264999;stroke-dasharray:none;stroke-opacity:1"
       d="m 115.1466,176.09366 v 5.56607 h 39.45501 v -5.56607 z"
       sodipodi:nodetypes="ccccc"
       inkscape:label="url bg" />
    <a
       id="a3"
       xlink:href="https://faction.im"
       target="_parent">
      <text
         xml:space="preserve"
         style="font-style:normal;font-variant:normal;font-weight:normal;font-stretch:normal;font-size:3.52778px;font-family:'Adwaita Mono';-inkscape-font-specification:'Adwaita Mono';text-align:start;writing-mode:lr-tb;direction:ltr;text-anchor:start;display:inline;fill:#000000;stroke-width:0.264583"
         x="115.78502"
         y="179.84032"
         id="text25-7-1"
         inkscape:label="url"><tspan
           sodipodi:role="line"
           id="tspan25-2-5"
           style="font-style:normal;font-variant:normal;font-weight:normal;font-stretch:normal;font-size:3.52778px;font-family:'Adwaita Mono';-inkscape-font-specification:'Adwaita Mono Bold';stroke-width:0.264583"
           x="115.78502"
           y="179.84032">https://faction.im</tspan></text>
    </a>
  </g>
  <style
     id="style1" />
</svg>
