<?xml version="1.0" encoding="UTF-8" standalone="no"?>
<!-- Created with Inkscape (http://www.inkscape.org/) -->

<svg
   version="1.1"
   id="svg1"
   width="995.85339"
   height="192.80228"
   viewBox="0 0 995.85339 192.80228"
   xml:space="preserve"
   xmlns="http://www.w3.org/2000/svg"
   xmlns:svg="http://www.w3.org/2000/svg"><defs
     id="defs1" /><g
     id="g1"
     transform="translate(255.56681,781.48553)"><path
       style="fill:#000000"
       d="m -204.07871,-589.51734 c -3.22591,-0.50879 -10.12852,-2.05978 -15.33912,-3.44663 -12.8719,-3.426 -16.42968,-3.33934 -19.64213,0.47844 -1.38838,1.65 -3.45338,3 -4.58889,3 -1.13551,0 -2.06456,-0.19625 -2.06456,-0.4361 0,-0.898 -9.14502,-54.15657 -9.66965,-56.3139 -0.47303,-1.94515 -0.15093,-2.25 2.37723,-2.25 2.59099,0 3.17664,0.60859 5.13694,5.33817 7.07535,17.07055 21.45804,33.73675 34.8084,40.33485 7.56619,3.73942 7.99622,3.82687 18.79522,3.82249 9.52052,-0.004 11.69424,-0.32347 15.68799,-2.3066 7.33099,-3.64028 12.50027,-8.7049 15.86896,-15.54769 5.4343,-11.03864 4.06963,-23.39062 -3.71674,-33.64122 -5.31415,-6.99597 -11.73876,-11.70522 -35.44692,-25.98267 -23.45586,-14.12551 -31.99414,-20.34096 -38.23467,-27.83299 -18.38273,-22.06929 -11.36641,-57.18299 13.98247,-69.97636 16.99602,-8.57775 33.8039,-9.23866 55.79591,-2.194 11.40183,3.65234 15.90149,3.84258 18.05816,0.76351 0.85618,-1.22238 1.5567,-3.02238 1.5567,-4 0,-1.22933 0.77098,-1.77749 2.5,-1.77749 1.375,0 2.5,0.18929 2.5,0.42064 0,0.23136 1.35,12.41707 3,27.07936 1.65,14.66228 3,27.10288 3,27.64577 0,0.54289 -1.18034,0.84468 -2.62299,0.67065 -2.24794,-0.27118 -3.14661,-1.53178 -6.28514,-8.81642 -11.53615,-26.77583 -31.26431,-40.75295 -52.26514,-37.0291 -16.77696,2.97488 -26.39271,15.15906 -24.50987,31.05663 0.79146,6.68265 3.73078,11.96144 10.12163,18.17765 5.74888,5.59179 11.54012,9.38176 39.16385,25.63012 26.67531,15.69049 36.35357,24.55346 41.46586,37.97282 2.98719,7.84115 3.66121,21.45771 1.51415,30.58885 -4.34085,18.4609 -18.13792,31.91262 -38.08235,37.12909 -7.35164,1.92282 -24.92761,2.69406 -32.8653,1.44213 z m 366.90068,-0.55494 c -37.91647,-5.89194 -63.560209,-28.36633 -74.024889,-64.87604 -4.15971,-14.5126 -4.87806,-39.93345 -1.545973,-54.70866 6.594875,-29.24312 23.998912,-51.49863 48.908552,-62.54212 12.19454,-5.40635 30.36703,-9.27092 43.62693,-9.27772 21.26104,-0.0109 43.61816,6.47187 59.35978,17.21225 24.44128,16.67609 38.49758,48.7837 36.85721,84.18978 -1.10079,23.75963 -6.95455,40.98376 -19.54985,57.52358 -19.45141,25.54309 -56.21021,38.29396 -93.63176,32.47893 z m 34.62449,-10.7928 c 22.83137,-7.20503 38.22257,-26.44261 44.51222,-55.63616 1.46663,-6.80742 1.81489,-12.73366 1.76204,-29.98429 -0.0614,-20.04347 -0.24687,-22.17263 -2.73771,-31.42862 -7.39582,-27.48303 -21.8544,-44.3398 -44.06618,-51.3753 -7.98327,-2.52867 -25.28331,-2.26242 -34.17176,0.5259 -16.77838,5.2634 -31.71635,20.06623 -38.54052,38.19182 -5.84043,15.5127 -8.53322,34.29207 -7.54038,52.5862 2.34989,43.29893 20.50303,71.11827 50.93959,78.06394 7.44173,1.69821 23.0337,1.20527 29.8427,-0.94349 z m 150.84013,10.94949 c -4.125,-0.74952 -10.86595,-2.30938 -14.9799,-3.46635 -9.5432,-2.68386 -14.41021,-2.71348 -17.0201,-0.10359 -1.1,1.1 -2,2.45 -2,3 0,0.55 -1.11643,1 -2.48095,1 -1.75751,0 -2.62724,-0.65609 -2.98265,-2.25 -0.63153,-2.83228 -9.5364,-55.21587 -9.5364,-56.09866 0,-0.35824 1.10723,-0.65134 2.4605,-0.65134 2.0984,0 3.11122,1.30956 6.88219,8.89858 5.98115,12.03701 9.71522,17.32012 18.18003,25.72182 5.13,5.09175 9.41035,8.22572 15.02372,11 7.68593,3.79859 8.0806,3.8796 18.9017,3.8796 10.19088,0 11.46909,-0.21973 16.40763,-2.82045 12.43595,-6.54899 18.6712,-17.23742 17.91972,-30.71787 -0.85058,-15.258 -8.59815,-23.74645 -37.45225,-41.03372 -25.56606,-15.31732 -32.87281,-20.31499 -39.32324,-26.89628 -9.3638,-9.55377 -13.96519,-20.43265 -13.98813,-33.07159 -0.0385,-21.20157 12.38968,-37.67799 33.74419,-44.73578 6.67251,-2.2053 9.47341,-2.55584 20.24394,-2.53358 10.83698,0.0224 13.63086,0.38967 21,2.76059 18.27393,5.87939 22.02519,5.88647 24.13728,0.0456 0.94568,-2.61523 1.84418,-3.49691 3.56361,-3.49691 1.28571,0 2.29911,0.60695 2.29911,1.37699 0,2.09455 4.91588,47.66287 5.54208,51.37301 0.51906,3.07527 0.38483,3.25 -2.49677,3.25 -1.85695,0 -3.04531,-0.51552 -3.04531,-1.32107 0,-0.72659 -2.56371,-6.45074 -5.69714,-12.72034 -9.28766,-18.58348 -21.47415,-29.22147 -36.68672,-32.02508 -20.06289,-3.6975 -37.57764,8.72248 -37.60637,26.66726 -0.0246,15.33736 6.57764,22.83536 34.84363,39.57129 32.52874,19.25985 35.52664,21.27131 43.71061,29.32794 8.93943,8.80033 12.51565,15.01729 14.34272,24.93365 1.46304,7.94055 1.35371,13.6729 -0.42052,22.0489 -4.06309,19.18153 -17.71358,32.68157 -38.44038,38.0167 -8.74423,2.25078 -25.70023,2.76881 -35.04583,1.07069 z m -476,-5.56994 c 0,-2.61998 0.35515,-3 2.80366,-3 5.1598,0 12.40061,-4.55402 16.69634,-10.50097 2.2,-3.04564 12.648238,-23.64137 23.218306,-45.76829 10.570067,-22.12691 28.518814,-59.69324 39.886103,-83.48074 l 20.667799,-43.25 3.113896,0.0128 3.113897,0.0128 32.924375,72.73724 c 42.138581,93.09346 44.48732,98.02685 49.100763,103.13338 4.595483,5.08665 7.468741,6.68047 13.738036,7.62061 4.127415,0.61895 4.736826,1.01736 4.736826,3.09679 v 2.38646 H 43.220168 4.1537459 l 0.3164223,-2.75 c 0.2972555,-2.58343 0.6798644,-2.78485 6.3164228,-3.32523 10.996013,-1.05421 14.903442,-4.60862 14.208432,-12.92477 -0.236344,-2.82799 -3.450735,-11.47093 -8.651071,-23.26126 l -8.2749894,-18.76125 -40.0099156,0.26125 -40.009915,0.26126 -6.479367,14.5 c -11.490128,25.71344 -12.558634,30.87838 -7.44575,35.99127 2.72599,2.72599 5.173457,3.43555 14.662576,4.25094 2.451548,0.21066 3.057847,0.76053 3.316422,3.00779 l 0.316422,2.75 H -97.646987 -127.71341 Z M 2.9439094,-665.93616 c -2.95325829,-7.69607 -33.1022704,-75.54068 -33.5569524,-75.51353 -0.529842,0.0316 -34.08692,70.75828 -35.686231,75.21416 -0.59058,1.64542 1.476129,1.75 34.585865,1.75 30.3578186,0 35.1372116,-0.20005 34.6573184,-1.45063 z m 441.5262606,70.70063 c 0.30378,-2.64013 0.59835,-2.77521 7.37273,-3.38087 9.72851,-0.86977 14.60527,-3.52762 17.58829,-9.58569 l 2.3554,-4.78344 v -69.5 c 0,-38.225 -0.36792,-71.65649 -0.8176,-74.2922 -1.53883,-9.01952 -7.58913,-13.40403 -20.1824,-14.62573 -5.63457,-0.54662 -6.01927,-0.74956 -6.31642,-3.33207 l -0.31642,-2.75 h 42.06642 42.06642 v 2.85496 c 0,2.81354 -0.10208,2.86352 -7.03579,3.44482 -8.91861,0.7477 -14.52263,3.71415 -17.38049,9.20022 -2.04525,3.92615 -2.08894,5.29115 -2.36638,73.93417 -0.19616,48.53318 0.058,71.57542 0.83074,75.29741 1.95258,9.40552 9.24423,14.26842 21.39474,14.26842 4.39687,0 4.55718,0.10553 4.55718,3 v 3 h -42.06642 -42.06642 z m 98.81642,-0.1054 c 0,-2.79314 0.14556,-2.86899 6.6762,-3.47883 9.07732,-0.84765 15.25252,-4.02321 17.8238,-9.16577 1.93455,-3.8691 2.00924,-6.30074 2.28226,-74.30032 l 0.28227,-70.30032 -2.18913,-3.19968 c -6.14108,-8.97598 -13.05346,-14.0649 -20.78363,-15.301 -3.68741,-0.58964 -4.09177,-0.93814 -4.09177,-3.52649 v -2.87219 l 23.75,0.007 23.75,0.007 54.5,65.43218 c 29.975,35.9877 54.86784,65.45943 55.31742,65.49275 0.44958,0.0333 0.67458,-25.02692 0.5,-55.68942 -0.30407,-53.40589 -0.40151,-55.91819 -2.31742,-59.75 -2.57128,-5.14257 -8.74648,-8.31813 -17.8238,-9.16578 -6.53064,-0.60984 -6.6762,-0.68569 -6.6762,-3.47883 v -2.85539 h 33 33 v 2.85539 c 0,2.79314 -0.14556,2.86899 -6.6762,3.47883 -8.98914,0.83942 -15.12232,4.00266 -17.77145,9.16578 -2.01356,3.9244 -2.05798,5.56392 -2.35049,86.75 l -0.29814,82.75 h -2.41377 c -1.97052,0 -13.85184,-13.62927 -64.70186,-74.22059 l -62.28809,-74.22059 -0.25741,64.38956 c -0.25311,63.31574 -0.22292,64.46079 1.81011,68.66048 2.58897,5.3481 8.02673,8.19366 17.31528,9.06104 6.48302,0.60539 6.63202,0.68346 6.63202,3.4747 v 2.8554 h -33 -33 z"
       id="path2" /></g></svg>
