<?xml version="1.0" encoding="UTF-8" standalone="no"?>
<!-- Created with Inkscape (http://www.inkscape.org/) -->

<svg
   width="135.46666mm"
   height="131.96513mm"
   viewBox="0 0 135.46666 131.96513"
   version="1.1"
   id="svg1"
   xmlns="http://www.w3.org/2000/svg"
   xmlns:svg="http://www.w3.org/2000/svg">
  <defs
     id="defs1" />
  <g
     id="layer1"
     transform="translate(-187.325,-159.54373)">
    <path
       d="m 241.48815,160.58339 c -17.99536,4.01204 -32.7457,13.98324 -42.89386,29.0875 -17.75941,26.60966 -14.2194,62.30538 8.43713,85.07995 6.78511,6.84409 17.11036,13.45223 24.89844,15.9892 2.89116,0.94406 3.24515,0.94406 4.5432,0.0602 1.41602,-0.94406 1.475,-1.18014 1.475,-7.96524 v -6.96213 l -5.19212,0.29494 c -6.07705,0.29493 -10.79721,-0.76697 -13.62932,-3.18596 -1.00298,-0.82609 -2.95008,-3.65806 -4.30705,-6.25416 -2.24204,-4.3661 -3.89407,-6.37212 -8.49619,-10.44322 -1.53406,-1.35704 -1.59298,-1.41596 -0.53102,-2.18312 2.53711,-1.88792 7.67018,-0.0602 10.91526,3.83522 5.66415,6.90307 7.84713,8.73213 11.09229,9.44011 2.89102,0.59054 5.5461,0.35446 9.55815,-0.82595 0.53102,-0.17656 1.23899,-1.41608 1.59298,-2.83211 0.35446,-1.35703 1.29805,-3.42197 2.06508,-4.54306 l 1.41602,-2.06508 -4.77901,-0.94406 c -10.03025,-2.06507 -16.22542,-5.66401 -20.29652,-11.80026 -3.77603,-5.66408 -5.01509,-10.56113 -5.07408,-19.70638 0,-8.61416 0.94399,-12.15418 4.66111,-16.99238 1.65203,-2.124 1.82899,-2.77305 1.35703,-4.01211 -0.88507,-2.12393 -0.64872,-11.09215 0.29494,-13.80622 0.76702,-2.00609 1.18,-2.36001 2.77305,-2.53704 2.65508,-0.29493 7.61118,1.41602 12.62628,4.24799 l 4.30711,2.47813 3.7761,-0.88501 c 5.36908,-1.23906 21.47639,-1.18001 26.31459,0 l 3.65799,0.94406 3.42211,-2.06508 c 4.54307,-2.71407 10.32519,-4.83813 13.21628,-4.83813 2.30096,0 2.30096,0.0602 3.24502,3.06805 1.00305,3.48117 1.18007,9.79424 0.29494,12.80331 -0.47217,1.77001 -0.35379,2.30109 0.94405,4.01212 6.43112,8.49612 7.13916,22.5974 1.71103,34.16172 -3.65806,7.61118 -11.38722,12.92128 -21.77139,14.86825 l -4.95618,0.94405 1.829,3.24516 1.88812,3.304 0.17722,13.15723 0.23608,13.15729 1.47508,0.94399 c 1.35703,0.88508 1.65203,0.88508 4.48408,-0.11837 4.72009,-1.59305 12.80323,-5.95915 17.22832,-9.32214 26.31459,-19.70645 34.81078,-55.04825 20.23747,-84.43089 -8.55525,-17.28732 -24.72154,-30.56259 -43.24792,-35.51876 -8.08321,-2.12399 -23.30545,-2.59602 -30.97562,-0.88494 z"
       id="path1"
       style="display:inline;stroke-width:0.0590013" />
  </g>
</svg>
