<?xml version="1.0" encoding="UTF-8" standalone="no"?>
<!-- Created with Inkscape (http://www.inkscape.org/) -->

<svg
   width="135.3925mm"
   height="135.46666mm"
   viewBox="0 0 135.3925 135.46666"
   version="1.1"
   id="svg1"
   xmlns="http://www.w3.org/2000/svg"
   xmlns:svg="http://www.w3.org/2000/svg">
  <defs
     id="defs1" />
  <g
     id="layer1"
     transform="translate(-95.250002,-138.64163)">
    <path
       style="fill:#000000;stroke-width:1.81909"
       d="m 158.15867,274.0199 c -0.51014,-0.0619 -2.06032,-0.23514 -3.44493,-0.39121 -15.56155,-1.75072 -30.60589,-9.43497 -41.52086,-21.20774 -9.69538,-10.4574 -15.705691,-23.3745 -17.621114,-37.87065 -0.429019,-3.24692 -0.429019,-13.18276 0,-16.42975 2.01165,-15.22438 8.586854,-28.79113 19.105924,-39.42158 10.79482,-10.90903 24.5216,-17.6704 40.03605,-19.72041 1.38461,-0.18288 5.08132,-0.33482 8.21488,-0.33689 6.72108,-0.005 10.58101,0.45515 16.57957,1.97665 12.14857,3.08103 22.25148,8.85545 31.26671,17.87061 10.5322,10.5322 16.95531,23.18309 19.24725,37.90894 0.82758,5.31715 0.82703,14.56435 -0.001,19.8747 -2.30495,14.7792 -8.77247,27.60163 -19.1629,37.99213 -10.38163,10.38156 -23.38817,16.94403 -37.93561,19.14048 -3.32882,0.50258 -12.45976,0.88265 -14.76381,0.61465 z m 11.92486,-8.88674 c 7.95905,-0.91799 16.38404,-3.81757 23.31963,-8.02567 11.745,-7.1261 20.92269,-18.53841 25.28569,-31.44224 1.08018,-3.19474 2.37287,-8.1893 2.17156,-8.39061 -0.0412,-0.0412 -1.07867,0.71971 -2.30508,1.69125 -13.94241,11.04407 -25.78408,17.80035 -34.27067,19.55335 -2.61426,0.53971 -7.79095,0.53489 -10.43615,-0.007 -3.26164,-0.6724 -5.67184,-1.75265 -11.18171,-5.01312 -2.84032,-1.6808 -6.09075,-3.41331 -7.22311,-3.84996 -3.91982,-1.51167 -7.89979,-2.02319 -12.28843,-1.57946 -10.01847,1.01294 -17.51983,4.41689 -27.86349,12.64387 -0.35044,0.27845 -0.13229,0.65934 1.59444,2.78244 13.04655,16.04054 32.64087,24.01135 53.19732,21.64027 z m 12.62132,-33.61999 c 5.01656,-2.4696 6.89648,-9.15225 4.13831,-14.71031 -3.93514,-7.92983 -14.39322,-8.33348 -18.15092,-0.70053 -0.82056,1.66678 -0.86119,1.89353 -0.86119,4.8024 0,2.88535 0.0481,3.15143 0.84841,4.84399 1.47097,3.1055 4.59572,5.77373 7.66265,6.54329 1.8256,0.45789 4.52023,0.12856 6.36274,-0.77884 z m -73.25873,-12.22565 c 10.85785,-9.22788 21.37892,-16.35468 31.09034,-21.05979 9.7698,-4.73343 16.26826,-6.39842 23.92913,-6.13077 5.63595,0.19664 8.13505,1.04532 16.44894,5.58439 6.21643,3.39392 10.26811,4.70477 16.14993,5.22482 3.90476,0.34514 8.47312,0.0481 12.90101,-0.83769 2.4461,-0.48952 8.23276,-2.28157 10.50202,-3.25208 l 0.96219,-0.41183 -0.48058,-2.6758 c -0.26401,-1.47173 -0.80455,-3.83126 -1.20049,-5.24331 -0.68203,-2.43241 -2.51554,-7.48293 -2.97666,-8.19927 -0.16982,-0.26332 -1.08561,-0.27089 -4.43753,-0.0344 -5.79738,0.40427 -20.22182,0.15814 -24.23115,-0.41251 -8.97054,-1.27757 -13.21996,-2.91664 -18.44711,-7.11559 -1.2953,-1.04051 -4.95592,-4.42749 -8.13478,-7.52666 -7.55361,-7.36441 -10.04343,-9.39145 -13.93375,-11.34383 -6.68588,-3.35549 -12.68197,-2.45132 -19.90351,3.0012 -12.76617,9.63889 -20.79379,23.12108 -23.22418,39.00432 -0.56777,3.71039 -0.64353,12.23486 -0.14019,15.76725 0.65398,4.58953 1.53098,8.42987 1.89499,8.29828 0.12685,-0.0481 1.58099,-1.23103 3.23138,-2.63366 z"
       id="path1" />
  </g>
</svg>
