<?xml version="1.0" encoding="UTF-8" standalone="no"?>
<!-- Created with Inkscape (http://www.inkscape.org/) -->

<svg
   width="512"
   height="512.00049"
   viewBox="0 0 135.46667 135.4668"
   version="1.1"
   id="svg1"
   xml:space="preserve"
   xmlns="http://www.w3.org/2000/svg"
   xmlns:svg="http://www.w3.org/2000/svg"><defs
     id="defs1" /><g
     id="layer1"
     transform="translate(1.8587788,-158.50982)"><path
       fill="currentColor"
       d="m 65.874555,183.05513 c -7.869829,0 -15.163848,1.96742 -21.881995,5.90233 -6.430187,3.83887 -11.564785,8.97348 -15.403738,15.40382 -3.934894,6.71812 -5.902344,14.0121 -5.902344,21.88193 0,7.86983 1.96745,15.16381 5.902344,21.88193 3.838953,6.43027 8.973551,11.56488 15.403738,15.40382 6.718147,3.93484 14.012166,5.90233 21.881995,5.90233 7.869835,0 15.163806,-1.96749 21.881905,-5.90233 6.430235,-3.83894 11.564833,-8.97355 15.40383,-15.40382 3.9349,-6.71812 5.90235,-14.0121 5.90235,-21.88193 0,-7.86983 -1.96745,-15.16381 -5.90235,-21.88193 -3.838997,-6.43034 -8.973595,-11.56495 -15.40383,-15.40382 -6.718099,-3.93491 -14.01207,-5.90233 -21.881905,-5.90233 z M 37.08249,226.24321 c 0,-6.62215 2.063432,-12.52456 6.190297,-17.70715 4.126865,-5.18259 9.261462,-8.58964 15.403745,-10.22122 v 55.85667 C 52.43826,252.54 47.30367,249.13295 43.272787,243.95036 c -4.030876,-5.18259 -6.094308,-11.085 -6.190297,-17.70715 z m 35.990094,27.9283 v -55.85667 c 6.238271,1.63158 11.420836,5.03863 15.547653,10.22122 4.126865,5.18259 6.14233,11.085 6.046341,17.70715 -0.09577,6.62215 -2.111351,12.52456 -6.046341,17.70715 -3.934846,5.18259 -9.117411,8.58964 -15.547653,10.22115 z m -7.198029,-84.07283 c 10.173212,0 19.626598,2.54328 28.360162,7.62989 8.445693,4.99064 15.163843,11.70877 20.154493,20.15445 5.08658,8.73361 7.62989,18.18696 7.62989,28.36019 0,10.17317 -2.54331,19.62658 -7.62989,28.36019 -4.99065,8.44568 -11.7088,15.16381 -20.154493,20.15445 -8.733564,5.08655 -18.18695,7.62989 -28.360162,7.62989 -10.173207,0 -19.626592,-2.54334 -28.360197,-7.62989 -8.44566,-4.99064 -15.163807,-11.70877 -20.154448,-20.15445 -5.086576,-8.73361 -7.6298912,-18.18702 -7.6298912,-28.36019 0,-10.17323 2.5433152,-19.62658 7.6298912,-28.36019 4.990641,-8.44568 11.708788,-15.16381 20.154448,-20.15445 8.733605,-5.08661 18.18699,-7.62989 28.360197,-7.62989 z m 0,-11.51688 c -9.30943,0 -18.043035,1.72755 -26.200783,5.18259 -8.157741,3.4551 -15.35577,8.3497 -21.594041,14.68393 -6.142324,5.95039 -10.9889614,13.05249 -14.5400093,21.30615 -3.55099994,8.2538 -5.3265205,17.08331 -5.3265205,26.48874 0,9.40543 1.77552056,18.13897 5.3265205,26.20075 3.5510479,8.06185 8.3976853,15.25985 14.5400093,21.59414 5.950359,6.14228 13.100374,10.98896 21.450085,14.5399 8.349719,3.55108 17.131298,5.32663 26.344739,5.32663 9.213447,0 17.947059,-1.72756 26.200741,-5.18267 8.253774,-3.45503 15.451804,-8.34963 21.594084,-14.68386 6.14229,-5.95046 10.98897,-13.10047 14.53997,-21.45018 3.55104,-8.3497 5.32656,-17.1313 5.32656,-26.34471 0,-9.21348 -1.72751,-17.94709 -5.18256,-26.20082 -3.45506,-8.25373 -8.34971,-15.45173 -14.68397,-21.59407 -5.95035,-6.14228 -13.05239,-10.98896 -21.306172,-14.53997 -8.253682,-3.55101 -17.083235,-5.32655 -26.488653,-5.32655 z"
       id="path1-5"
       style="display:inline;stroke:#000000;stroke-width:0.14396;stroke-opacity:1" /></g></svg>
